<svg width="214" height="56" viewBox="0 0 214 56" fill="none" xmlns="http://www.w3.org/2000/svg">
<rect x="1.5" y="4.5" width="211" height="48" rx="23.5" fill="#3AA664" fill-opacity="0.64" stroke="#018133" stroke-width="3"/>
<path d="M97.6112 23.405C95.5262 23.405 94.0262 25.325 94.0262 28.355C94.0262 31.415 95.5262 33.335 97.6112 33.335C99.6812 33.335 101.196 31.415 101.196 28.355C101.196 25.325 99.6812 23.405 97.6112 23.405ZM97.6112 25.22C98.6312 25.22 99.2912 26.315 99.2912 28.355C99.2912 30.425 98.6312 31.535 97.6112 31.535C96.6062 31.535 95.9312 30.425 95.9312 28.355C95.9312 26.315 96.6062 25.22 97.6112 25.22ZM103.476 22.43V36.365H105.456V22.43H103.476ZM100.611 27.44V29.045H104.316V27.44H100.611ZM111.11 31.625V36.11H113.105V31.625H111.11ZM117.245 22.46V36.35H119.225V22.46H117.245ZM107.9 32.6C110.495 32.6 113.63 32.57 116.63 32.12L116.495 30.695C113.615 31.01 110.33 31.025 107.675 31.025L107.9 32.6ZM108.05 23.765V25.28H116.18V23.765H108.05ZM112.115 25.67C110.105 25.67 108.71 26.615 108.71 28.025C108.71 29.435 110.105 30.395 112.115 30.395C114.11 30.395 115.505 29.435 115.505 28.025C115.505 26.615 114.11 25.67 112.115 25.67ZM112.115 27.125C113.015 27.125 113.615 27.425 113.615 28.025C113.615 28.625 113.015 28.925 112.115 28.925C111.2 28.925 110.6 28.625 110.6 28.025C110.6 27.425 111.2 27.125 112.115 27.125ZM111.11 22.34V24.725H113.105V22.34H111.11Z" fill="black"/>
</svg>
