<svg width="214" height="56" viewBox="0 0 214 56" fill="none" xmlns="http://www.w3.org/2000/svg">
<rect x="1.5" y="4.5" width="211" height="48" rx="23.5" fill="#3AA664" fill-opacity="0.64" stroke="#018133" stroke-width="3"/>
<path d="M63.1489 23V24.575H71.9539V23H63.1489ZM61.6189 27.335V28.91H74.1889V27.335H61.6189ZM70.7539 23V23.945C70.7539 24.92 70.7539 26.045 70.3939 27.62L72.3589 27.8C72.7189 26.195 72.7189 24.935 72.7189 23.945V23H70.7539ZM63.0139 29.855V31.4H70.6939V32.3H63.0289V35.18H65.0239V33.77H72.6739V29.855H63.0139ZM63.0289 34.7V36.245H73.0339V34.7H63.0289ZM79.8727 23.36C77.6977 23.36 76.0327 24.785 76.0327 26.78C76.0327 28.79 77.6977 30.215 79.8727 30.215C82.0627 30.215 83.6977 28.79 83.6977 26.78C83.6977 24.785 82.0627 23.36 79.8727 23.36ZM79.8727 25.07C80.9377 25.07 81.7477 25.7 81.7477 26.78C81.7477 27.875 80.9377 28.505 79.8727 28.505C78.8077 28.505 77.9977 27.875 77.9977 26.78C77.9977 25.7 78.8077 25.07 79.8727 25.07ZM85.0027 22.43V36.365H86.9977V22.43H85.0027ZM75.7027 33.545C78.1027 33.545 81.3727 33.515 84.3877 32.915L84.2377 31.475C81.3127 31.91 77.9077 31.94 75.4627 31.94L75.7027 33.545ZM94.145 22.985V27.905H103.58V22.985H94.145ZM101.615 24.545V26.345H96.095V24.545H101.615ZM92.6 29.21V30.785H105.155V29.21H92.6ZM97.865 27.545V29.66H99.86V27.545H97.865ZM93.995 31.79V33.365H101.645V36.335H103.64V31.79H93.995ZM109.609 23.825V24.71C109.609 26.45 108.619 28.28 106.324 29.03L107.329 30.605C109.999 29.735 111.229 27.32 111.229 24.71V23.825H109.609ZM110.029 23.825V24.71C110.029 27.17 111.214 29.48 113.794 30.335L114.769 28.775C112.579 28.04 111.634 26.33 111.634 24.71V23.825H110.029ZM113.959 25.76V27.38H116.599V25.76H113.959ZM106.864 23.21V24.785H114.334V23.21H106.864ZM108.559 31.34V32.93H116.029V36.335H118.024V31.34H108.559ZM116.029 22.445V30.71H118.024V22.445H116.029ZM119.793 37.73H121.263L124.998 22.91H123.543L119.793 37.73ZM131.143 23.99V24.395C131.143 25.82 129.673 27.38 126.613 27.755L127.348 29.315C130.873 28.835 132.868 26.84 132.868 24.395V23.99H131.143ZM131.713 23.99V24.395C131.713 26.84 133.708 28.835 137.248 29.315L137.968 27.755C134.908 27.38 133.438 25.82 133.438 24.395V23.99H131.713ZM131.248 31.25V36.35H133.228V31.25H131.248ZM126.013 30.11V31.7H138.568V30.11H126.013ZM127.123 23.15V24.725H137.428V23.15H127.123ZM149.832 22.445V36.335H151.722V22.445H149.832ZM145.257 27.185V28.805H147.552V27.185H145.257ZM147.027 22.67V35.705H148.887V22.67H147.027ZM142.257 24.71V26.135C142.257 28.505 141.552 30.995 139.512 32.27L140.697 33.74C142.902 32.36 143.757 29.255 143.757 26.135V24.71H142.257ZM142.707 24.71V26.135C142.707 29.195 143.517 32.105 145.722 33.41L146.892 31.955C144.882 30.785 144.192 28.445 144.192 26.135V24.71H142.707ZM140.037 23.84V25.445H146.232V23.84H140.037Z" fill="black"/>
</svg>
