<svg width="214" height="56" viewBox="0 0 214 56" fill="none" xmlns="http://www.w3.org/2000/svg">
<rect x="1.5" y="4.5" width="211" height="48" rx="23.5" fill="#3AA664" fill-opacity="0.64" stroke="#018133" stroke-width="3"/>
<path d="M79.5081 23.435V30.485H86.2581V23.435H84.2781V25.415H81.4731V23.435H79.5081ZM81.4731 26.945H84.2781V28.91H81.4731V26.945ZM88.3431 22.46V32.66H90.3531V22.46H88.3431ZM81.0681 34.505V36.095H90.6681V34.505H81.0681ZM81.0681 31.655V35.375H83.0631V31.655H81.0681ZM97.702 23.435V24.23C97.702 26.81 96.442 28.73 92.692 29.945L93.487 31.505C98.017 29.99 99.742 27.32 99.742 23.435H97.702ZM93.412 23.435V25.025H98.977V23.435H93.412ZM97.942 26.18L92.707 26.345L92.977 27.905L97.942 27.53V26.18ZM101.527 22.445V32.645H103.537V22.445H101.527ZM102.967 26.435V28.07H105.382V26.435H102.967ZM94.552 34.505V36.095H104.002V34.505H94.552ZM94.552 31.745V35.585H96.562V31.745H94.552ZM115.079 31.34V36.35H117.059V31.34H115.079ZM109.814 30.755V32.375H122.369V30.755H109.814ZM115.064 24.935V25.265C115.064 26.555 113.579 28.13 110.444 28.49L111.134 30.05C114.809 29.615 116.819 27.59 116.819 25.265V24.935H115.064ZM115.319 24.935V25.265C115.319 27.53 117.329 29.63 120.989 30.05L121.694 28.49C118.574 28.13 117.074 26.525 117.074 25.265V24.935H115.319ZM110.939 24.035V25.61H121.229V24.035H110.939ZM115.079 22.475V24.575H117.059V22.475H115.079ZM123.598 30.125V31.715H136.183V30.125H123.598ZM125.173 34.835V36.425H134.968V34.835H125.173ZM125.173 32.405V35.315H127.168V32.405H125.173ZM128.893 28.205V30.83H130.888V28.205H128.893ZM125.143 22.745V24.26H132.688V25.19H125.158V28.04H127.138V26.6H134.653V22.745H125.143ZM125.158 27.575V29.075H134.923V27.575H125.158Z" fill="black"/>
</svg>
