<svg width="214" height="56" viewBox="0 0 214 56" fill="none" xmlns="http://www.w3.org/2000/svg">
<rect x="1.5" y="4.5" width="211" height="48" rx="23.5" fill="#3AA664" fill-opacity="0.64" stroke="#018133" stroke-width="3"/>
<path d="M89.6768 29.495V33.395H91.6568V29.495H89.6768ZM94.7168 29.495V33.395H96.7118V29.495H94.7168ZM86.9168 33.11V34.73H99.4868V33.11H86.9168ZM93.1868 23.12C90.1868 23.12 87.9968 24.59 87.9968 26.855C87.9968 29.12 90.1868 30.575 93.1868 30.575C96.1718 30.575 98.3768 29.12 98.3768 26.855C98.3768 24.59 96.1718 23.12 93.1868 23.12ZM93.1868 24.68C95.1218 24.68 96.4118 25.475 96.4118 26.855C96.4118 28.22 95.1218 29.03 93.1868 29.03C91.2518 29.03 89.9618 28.22 89.9618 26.855C89.9618 25.475 91.2518 24.68 93.1868 24.68ZM111.021 24.245V25.88H113.421V24.245H111.021ZM111.021 27.26V28.895H113.421V27.26H111.021ZM109.641 22.445V30.635H111.636V22.445H109.641ZM102.366 31.205V32.795H109.641V36.335H111.636V31.205H102.366ZM104.571 23.195C102.426 23.195 100.791 24.62 100.791 26.6C100.791 28.58 102.426 29.99 104.571 29.99C106.716 29.99 108.351 28.58 108.351 26.6C108.351 24.62 106.716 23.195 104.571 23.195ZM104.571 24.89C105.621 24.89 106.401 25.505 106.401 26.6C106.401 27.695 105.621 28.325 104.571 28.325C103.521 28.325 102.741 27.695 102.741 26.6C102.741 25.505 103.521 24.89 104.571 24.89ZM114.499 29.3V30.89H127.069V29.3H114.499ZM119.944 30.305V33.23H121.954V30.305H119.944ZM116.044 23.03V28.19H125.479V23.03H116.044ZM123.514 24.59V26.63H117.994V24.59H123.514ZM115.954 34.505V36.095H125.689V34.505H115.954ZM115.954 32.06V35.03H117.934V32.06H115.954Z" fill="black"/>
</svg>
