<svg width="180" height="58" viewBox="0 0 180 58" fill="none" xmlns="http://www.w3.org/2000/svg">
<path d="M0 57H180" stroke="#018133" stroke-width="2"/>
<path d="M9.09745 36.252C12.1574 36.252 13.9754 34.398 13.9754 32.22C13.9754 30.312 12.9134 29.268 11.3114 28.602L9.56545 27.882C8.43145 27.432 7.47745 27.072 7.47745 26.118C7.47745 25.254 8.21545 24.732 9.38545 24.732C10.4834 24.732 11.3654 25.128 12.2294 25.83L13.5614 24.156C12.4814 23.058 10.9334 22.446 9.38545 22.446C6.70345 22.446 4.77745 24.12 4.77745 26.298C4.77745 28.224 6.14545 29.322 7.47745 29.862L9.25945 30.618C10.4474 31.122 11.2574 31.446 11.2574 32.436C11.2574 33.354 10.5374 33.948 9.15145 33.948C7.98145 33.948 6.70345 33.372 5.76745 32.49L4.23745 34.326C5.53345 35.568 7.29745 36.252 9.09745 36.252ZM21.6439 36.252C25.1719 36.252 27.5839 33.624 27.5839 29.286C27.5839 24.966 25.1719 22.446 21.6439 22.446C18.0979 22.446 15.6859 24.948 15.6859 29.286C15.6859 33.624 18.0979 36.252 21.6439 36.252ZM21.6439 33.948C19.6459 33.948 18.4039 32.13 18.4039 29.286C18.4039 26.442 19.6459 24.732 21.6439 24.732C23.6239 24.732 24.8839 26.442 24.8839 29.286C24.8839 32.13 23.6239 33.948 21.6439 33.948ZM35.3154 36.252C38.5734 36.252 40.4634 34.434 40.4634 30.024V22.68H37.9074V30.258C37.9074 33.012 36.8814 33.948 35.3154 33.948C33.7494 33.948 32.7774 33.012 32.7774 30.258V22.68H30.1314V30.024C30.1314 34.434 32.0574 36.252 35.3154 36.252ZM43.6683 36H51.7503V33.768H46.3323V22.68H43.6683V36ZM54.0745 36H56.4505V30.438C56.4505 29.178 56.2525 27.324 56.1085 26.064H56.1805L57.2605 29.196L59.3125 34.812H60.8425L62.8945 29.196L63.9925 26.064H64.0825C63.9385 27.324 63.7225 29.178 63.7225 30.438V36H66.1525V22.68H63.2005L60.9865 28.926C60.7165 29.754 60.4825 30.618 60.1765 31.482H60.1045C59.8165 30.618 59.5825 29.754 59.2765 28.926L57.0085 22.68H54.0745V36ZM67.7102 36H70.4102L72.3182 29.07C72.7142 27.684 73.0922 26.154 73.4522 24.714H73.5242C73.9022 26.136 74.2802 27.684 74.6762 29.07L76.5842 36H79.3742L75.1082 22.68H71.9762L67.7102 36ZM70.3562 32.58H76.6922V30.528H70.3562V32.58ZM82.1209 36H84.7849V24.894H88.5469V22.68H78.3589V24.894H82.1209V36ZM90.7249 36H99.0949V33.768H93.3889V30.222H98.0509V27.972H93.3889V24.894H98.8969V22.68H90.7249V36ZM104.959 29.16V31.068H120.043V29.16H104.959ZM111.493 30.366V33.876H113.905V30.366H111.493ZM106.813 21.636V27.828H118.135V21.636H106.813ZM115.777 23.508V25.956H109.153V23.508H115.777ZM106.705 35.406V37.314H118.387V35.406H106.705ZM106.705 32.472V36.036H109.081V32.472H106.705ZM133.56 20.934V37.602H135.828V20.934H133.56ZM128.07 26.622V28.566H130.824V26.622H128.07ZM130.194 21.204V36.846H132.426V21.204H130.194ZM124.47 23.652V25.362C124.47 28.206 123.624 31.194 121.176 32.724L122.598 34.488C125.244 32.832 126.27 29.106 126.27 25.362V23.652H124.47ZM125.01 23.652V25.362C125.01 29.034 125.982 32.526 128.628 34.092L130.032 32.346C127.62 30.942 126.792 28.134 126.792 25.362V23.652H125.01ZM121.806 22.608V24.534H129.24V22.608H121.806ZM143.121 29.43V31.338H158.187V29.43H143.121ZM144.939 35.406V37.314H156.495V35.406H144.939ZM144.939 32.454V36.018H147.333V32.454H144.939ZM150.663 21.42C147.027 21.42 144.633 22.734 144.633 24.858C144.633 26.982 147.027 28.296 150.663 28.296C154.281 28.296 156.693 26.982 156.693 24.858C156.693 22.734 154.281 21.42 150.663 21.42ZM150.663 23.328C152.913 23.328 154.227 23.85 154.227 24.858C154.227 25.884 152.913 26.388 150.663 26.388C148.413 26.388 147.099 25.884 147.099 24.858C147.099 23.85 148.413 23.328 150.663 23.328ZM171.614 20.934V31.374H173.882V20.934H171.614ZM169.58 25.038V26.982H172.244V25.038H169.58ZM168.158 21.258V30.834H170.39V21.258H168.158ZM159.608 22.644V24.48H167.69V22.644H159.608ZM163.676 25.02C161.588 25.02 160.076 26.208 160.076 27.936C160.076 29.664 161.588 30.834 163.676 30.834C165.764 30.834 167.276 29.664 167.276 27.936C167.276 26.208 165.764 25.02 163.676 25.02ZM163.676 26.73C164.54 26.73 165.134 27.162 165.134 27.936C165.134 28.71 164.54 29.142 163.676 29.142C162.794 29.142 162.2 28.71 162.2 27.936C162.2 27.162 162.794 26.73 163.676 26.73ZM162.47 21.096V23.904H164.828V21.096H162.47ZM168.248 31.554C164.666 31.554 162.506 32.634 162.506 34.578C162.506 36.504 164.666 37.602 168.248 37.602C171.812 37.602 173.972 36.504 173.972 34.578C173.972 32.634 171.812 31.554 168.248 31.554ZM168.248 33.336C170.462 33.336 171.578 33.714 171.578 34.578C171.578 35.424 170.462 35.82 168.248 35.82C166.016 35.82 164.9 35.424 164.9 34.578C164.9 33.714 166.016 33.336 168.248 33.336Z" fill="#018133"/>
</svg>
