<svg width="170" height="58" viewBox="0 0 170 58" fill="none" xmlns="http://www.w3.org/2000/svg">
<path d="M0 57H170" stroke="#018133" stroke-width="2"/>
<path d="M33.6348 20.934V29.358H36.0468V20.934H33.6348ZM24.9228 30.096V31.914H33.6708V32.886H24.9588V36.288H27.2988V34.614H36.0468V30.096H24.9228ZM24.9588 35.64V37.494H36.4608V35.64H24.9588ZM26.0928 21.312V22.572C26.0928 24.606 24.9048 26.694 22.1148 27.54L23.2668 29.43C26.5248 28.44 28.0728 25.65 28.0728 22.572V21.312H26.0928ZM26.5788 21.312V22.572C26.5788 25.578 28.0728 28.188 31.2768 29.124L32.4288 27.27C29.7108 26.496 28.5408 24.552 28.5408 22.572V21.312H26.5788ZM42.8134 22.212V24.642C42.8134 27.882 41.4454 31.086 38.5474 32.346L39.9694 34.326C43.2814 32.796 44.7574 28.926 44.7574 24.642V22.212H42.8134ZM43.2814 22.212V24.642C43.2814 28.746 44.7574 32.454 47.9794 33.93L49.3834 32.004C46.5394 30.78 45.2254 27.72 45.2254 24.642V22.212H43.2814ZM50.1754 20.916V37.638H52.5874V20.916H50.1754ZM66.014 20.934V32.868H68.426V20.934H66.014ZM67.742 25.578V27.54H70.64V25.578H67.742ZM61.37 22.176V23.364C61.37 26.01 59.264 28.242 55.178 29.358L56.186 31.266C61.154 29.826 63.926 26.712 63.926 22.176H61.37ZM55.898 22.176V24.102H62.666V22.176H55.898ZM57.644 35.406V37.314H68.984V35.406H57.644ZM57.644 31.662V36.252H60.056V31.662H57.644ZM75.9407 29.16V31.068H91.0247V29.16H75.9407ZM82.4747 30.366V33.876H84.8867V30.366H82.4747ZM77.7947 21.636V27.828H89.1167V21.636H77.7947ZM86.7587 23.508V25.956H80.1347V23.508H86.7587ZM77.6867 35.406V37.314H89.3687V35.406H77.6867ZM77.6867 32.472V36.036H80.0627V32.472H77.6867ZM104.541 20.934V37.602H106.809V20.934H104.541ZM99.0513 26.622V28.566H101.805V26.622H99.0513ZM101.175 21.204V36.846H103.407V21.204H101.175ZM95.4513 23.652V25.362C95.4513 28.206 94.6053 31.194 92.1573 32.724L93.5793 34.488C96.2253 32.832 97.2513 29.106 97.2513 25.362V23.652H95.4513ZM95.9913 23.652V25.362C95.9913 29.034 96.9633 32.526 99.6093 34.092L101.013 32.346C98.6013 30.942 97.7733 28.134 97.7733 25.362V23.652H95.9913ZM92.7873 22.608V24.534H100.221V22.608H92.7873ZM125.178 20.934V37.602H127.446V20.934H125.178ZM119.688 26.622V28.566H122.442V26.622H119.688ZM121.812 21.204V36.846H124.044V21.204H121.812ZM116.088 23.652V25.362C116.088 28.206 115.242 31.194 112.794 32.724L114.216 34.488C116.862 32.832 117.888 29.106 117.888 25.362V23.652H116.088ZM116.628 23.652V25.362C116.628 29.034 117.6 32.526 120.246 34.092L121.65 32.346C119.238 30.942 118.41 28.134 118.41 25.362V23.652H116.628ZM113.424 22.608V24.534H120.858V22.608H113.424ZM133.403 22.644V23.688C133.403 25.776 132.233 27.936 129.443 28.836L130.685 30.69C133.871 29.664 135.365 26.838 135.365 23.688V22.644H133.403ZM133.889 22.644V23.688C133.889 26.676 135.329 29.394 138.443 30.402L139.667 28.548C136.967 27.684 135.833 25.65 135.833 23.688V22.644H133.889ZM130.091 21.906V23.814H139.091V21.906H130.091ZM140.423 20.934V30.978H142.817V20.934H140.423ZM142.151 24.966V26.928H145.031V24.966H142.151ZM131.693 31.698V33.624H140.423V37.602H142.817V31.698H131.693Z" fill="#018133"/>
</svg>
