<svg width="214" height="56" viewBox="0 0 214 56" fill="none" xmlns="http://www.w3.org/2000/svg">
<rect x="1.5" y="4.5" width="211" height="48" rx="23.5" stroke="#018133" stroke-width="3"/>
<path d="M84.0681 22.805V23.24C84.0681 24.815 82.5081 26.525 79.4331 26.96L80.1831 28.52C83.7231 27.98 85.7781 25.805 85.7781 23.24V22.805H84.0681ZM84.3981 22.805V23.24C84.3981 25.775 86.4531 27.95 89.9931 28.475L90.7281 26.915C87.6681 26.495 86.1081 24.77 86.1081 23.24V22.805H84.3981ZM78.8031 29.27V30.86H91.3731V29.27H78.8031ZM84.2481 30.275V33.2H86.2581V30.275H84.2481ZM80.2581 34.505V36.095H89.9931V34.505H80.2581ZM80.2581 32.03V35H82.2381V32.03H80.2581ZM99.607 26.78V28.385H103.267V26.78H99.607ZM95.827 23.51V25.52C95.827 28.16 94.777 30.845 92.407 31.94L93.652 33.545C96.262 32.24 97.447 29.015 97.447 25.52V23.51H95.827ZM96.247 23.51V25.52C96.247 28.985 97.342 32.045 99.952 33.305L101.137 31.715C98.842 30.695 97.837 28.16 97.837 25.52V23.51H96.247ZM102.277 22.43V36.365H104.257V22.43H102.277ZM110.189 23.675V33.05H115.679V23.675H113.834V26.795H112.064V23.675H110.189ZM112.064 28.355H113.834V31.46H112.064V28.355ZM119.834 22.445V36.335H121.739V22.445H119.834ZM118.124 27.74V29.345H120.434V27.74H118.124ZM116.789 22.655V35.705H118.664V22.655H116.789ZM130.048 23.84V25.385H133.603V23.84H130.048ZM130.048 26.66V28.205H133.603V26.66H130.048ZM127.438 22.82C125.338 22.82 123.763 24.155 123.763 26.045C123.763 27.905 125.338 29.24 127.438 29.24C129.538 29.24 131.098 27.905 131.098 26.045C131.098 24.155 129.538 22.82 127.438 22.82ZM127.438 24.44C128.473 24.44 129.208 25.025 129.208 26.045C129.208 27.05 128.473 27.635 127.438 27.635C126.403 27.635 125.668 27.05 125.668 26.045C125.668 25.025 126.403 24.44 127.438 24.44ZM133.228 22.445V29.39H135.223V22.445H133.228ZM126.043 29.975V31.505H133.243V32.315H126.058V35.45H128.038V33.755H135.223V29.975H126.043ZM126.058 34.64V36.185H135.613V34.64H126.058Z" fill="black"/>
</svg>
