<svg width="214" height="56" viewBox="0 0 214 56" fill="none" xmlns="http://www.w3.org/2000/svg">
<rect x="1.5" y="4.5" width="211" height="48" rx="23.5" stroke="#018133" stroke-width="3"/>
<path d="M25.4496 24.26V25.865H36.9096V24.26H25.4496ZM24.9246 33.275V34.88H37.4946V33.275H24.9246ZM31.1646 26.45C28.2846 26.45 26.4546 27.515 26.4546 29.27C26.4546 31.04 28.2846 32.09 31.1646 32.09C34.0446 32.09 35.8746 31.04 35.8746 29.27C35.8746 27.515 34.0446 26.45 31.1646 26.45ZM31.1646 28.04C32.8896 28.04 33.8496 28.445 33.8496 29.27C33.8496 30.095 32.8896 30.515 31.1646 30.515C29.4396 30.515 28.4796 30.095 28.4796 29.27C28.4796 28.445 29.4396 28.04 31.1646 28.04ZM30.1896 22.64V25.235H32.1696V22.64H30.1896ZM38.7084 29.45V31.025H51.2934V29.45H38.7084ZM40.2534 22.7V24.215H47.7984V25.01H40.2684V27.935H42.2484V26.42H49.7634V22.7H40.2534ZM40.2684 27.2V28.715H50.0334V27.2H40.2684ZM40.2984 31.865V36.185H49.8384V31.865H40.2984ZM47.8734 33.425V34.61H42.2484V33.425H47.8734ZM53.0922 23.825V25.4H59.0772V23.825H53.0922ZM54.8772 27.8V32.51H56.8422V27.8H54.8772ZM58.2822 23.825V24.95C58.2822 26.285 58.2822 27.89 57.9222 30.11L59.8722 30.29C60.2472 27.98 60.2472 26.3 60.2472 24.95V23.825H58.2822ZM61.4322 22.445V36.335H63.4272V22.445H61.4322ZM62.8422 28.025V29.675H65.2872V28.025H62.8422ZM52.5672 33.53C54.9822 33.53 58.1022 33.47 60.9072 32.99L60.8022 31.535C58.0722 31.88 54.8322 31.925 52.3872 31.925L52.5672 33.53ZM70.3195 23.45V25.055H76.2595V23.45H70.3195ZM72.0295 26.69V30.17H74.0095V26.69H72.0295ZM75.4795 23.45V24.32C75.4795 25.28 75.4795 26.48 75.1795 28.19L77.1145 28.4C77.4445 26.675 77.4445 25.295 77.4445 24.32V23.45H75.4795ZM78.7945 22.445V32.84H80.8045V22.445H78.7945ZM80.0095 26.675V28.31H82.4545V26.675H80.0095ZM71.5345 34.505V36.095H81.2395V34.505H71.5345ZM71.5345 31.91V35H73.5295V31.91H71.5345ZM69.6895 30.98C72.0745 30.98 75.2995 30.92 78.1645 30.38L78.0445 28.97C75.2545 29.36 71.9095 29.405 69.5095 29.405L69.6895 30.98ZM88.8583 26.105V27.695H91.6783V26.105H88.8583ZM88.7833 29.57V31.16H91.6183V29.57H88.7833ZM93.5683 22.445V36.335H95.4733V22.445H93.5683ZM90.7033 22.745V35.72H92.5633V22.745H90.7033ZM87.5683 24.08V24.485C87.5683 27.845 86.4433 30.155 83.3083 32.06L84.4333 33.455C88.3033 31.175 89.4883 28.025 89.4883 24.08H87.5683ZM84.1033 24.08V25.67H88.2433V24.08H84.1033ZM102.231 30.575V36.185H107.301V30.575H105.456V31.94H104.076V30.575H102.231ZM104.076 33.38H105.456V34.685H104.076V33.38ZM109.446 30.47V31.505C109.446 32.81 108.771 34.145 107.106 34.835L108.081 36.32C110.136 35.525 110.961 33.545 110.961 31.505V30.47H109.446ZM109.911 30.47V31.505C109.911 33.695 110.691 35.57 112.791 36.32L113.781 34.835C112.086 34.265 111.426 32.945 111.426 31.505V30.47H109.911ZM107.721 25.415V27.035H111.201V25.415H107.721ZM104.541 22.97C102.441 22.97 100.866 24.32 100.866 26.24C100.866 28.16 102.441 29.525 104.541 29.525C106.626 29.525 108.201 28.16 108.201 26.24C108.201 24.32 106.626 22.97 104.541 22.97ZM104.541 24.605C105.561 24.605 106.296 25.22 106.296 26.24C106.296 27.26 105.561 27.89 104.541 27.89C103.521 27.89 102.771 27.26 102.771 26.24C102.771 25.22 103.521 24.605 104.541 24.605ZM110.331 22.445V29.795H112.326V22.445H110.331ZM116.059 26.195V27.77H125.689V26.195H116.059ZM114.499 29.21V30.8H127.084V29.21H114.499ZM116.059 22.94V26.975H118.039V22.94H116.059ZM115.924 34.445V36.035H125.764V34.445H115.924ZM115.924 31.91V34.865H117.919V31.91H115.924ZM131.697 29.3V30.89H144.267V29.3H131.697ZM137.142 30.305V33.23H139.152V30.305H137.142ZM133.242 23.03V28.19H142.677V23.03H133.242ZM140.712 24.59V26.63H135.192V24.59H140.712ZM133.152 34.505V36.095H142.887V34.505H133.152ZM133.152 32.06V35.03H135.132V32.06H133.152ZM148.586 23.99V24.86C148.586 26.63 147.611 28.445 145.301 29.21L146.291 30.785C148.976 29.9 150.221 27.515 150.221 24.86V23.99H148.586ZM148.991 23.99V24.86C148.991 27.335 150.191 29.51 152.831 30.305L153.776 28.745C151.541 28.07 150.611 26.48 150.611 24.86V23.99H148.991ZM145.826 23.375V24.965H153.326V23.375H145.826ZM154.436 22.445V30.68H156.431V22.445H154.436ZM155.876 25.64V27.275H158.276V25.64H155.876ZM151.901 30.935C149.006 30.935 147.191 31.94 147.191 33.635C147.191 35.33 149.006 36.335 151.901 36.335C154.781 36.335 156.596 35.33 156.596 33.635C156.596 31.94 154.781 30.935 151.901 30.935ZM151.901 32.495C153.671 32.495 154.616 32.855 154.616 33.635C154.616 34.415 153.671 34.805 151.901 34.805C150.131 34.805 149.171 34.415 149.171 33.635C149.171 32.855 150.131 32.495 151.901 32.495ZM165.813 24.755V25.265C165.813 26.765 164.838 28.25 162.588 28.85L163.503 30.41C166.158 29.69 167.418 27.62 167.418 25.265V24.755H165.813ZM166.188 24.755V25.265C166.188 27.5 167.433 29.48 170.118 30.155L171.003 28.625C168.768 28.055 167.808 26.645 167.808 25.265V24.755H166.188ZM163.083 23.78V25.34H170.538V23.78H163.083ZM165.813 22.4V24.5H167.808V22.4H165.813ZM171.633 22.445V30.35H173.628V22.445H171.633ZM173.073 25.55V27.185H175.473V25.55H173.073ZM168.093 31.61V31.94C168.093 33.14 166.803 34.43 163.908 34.775L164.628 36.29C167.973 35.855 169.773 34.1 169.773 31.94V31.61H168.093ZM168.528 31.61V31.94C168.528 34.04 170.328 35.885 173.688 36.32L174.393 34.805C171.543 34.43 170.223 33.095 170.223 31.94V31.61H168.528ZM164.493 30.95V32.525H173.808V30.95H164.493ZM186.062 22.445V36.335H188.072V22.445H186.062ZM181.967 23.885V24.245C181.967 27.965 180.527 30.485 176.537 32.405L177.572 33.995C182.507 31.61 183.947 28.13 183.947 23.885H181.967ZM177.272 23.885V25.46H182.912V23.885H177.272Z" fill="black"/>
</svg>
