<svg width="214" height="56" viewBox="0 0 214 56" fill="none" xmlns="http://www.w3.org/2000/svg">
<rect x="1.5" y="4.5" width="211" height="48" rx="23.5" fill="#3AA664" fill-opacity="0.64" stroke="#018133" stroke-width="3"/>
<path d="M74.6175 22.85C72.5025 22.85 70.9125 24.17 70.9125 26.03C70.9125 27.875 72.5025 29.195 74.6175 29.195C76.7325 29.195 78.3225 27.875 78.3225 26.03C78.3225 24.17 76.7325 22.85 74.6175 22.85ZM74.6175 24.47C75.6375 24.47 76.3875 25.04 76.3875 26.03C76.3875 27.02 75.6375 27.59 74.6175 27.59C73.5975 27.59 72.8325 27.02 72.8325 26.03C72.8325 25.04 73.5975 24.47 74.6175 24.47ZM80.2425 22.445V29.39H82.2525V22.445H80.2425ZM72.9825 29.96V31.505H80.2725V32.33H73.0125V35.45H74.9625V33.77H82.2525V29.96H72.9825ZM73.0125 34.64V36.185H82.5975V34.64H73.0125ZM94.0414 22.445V36.335H96.0514V22.445H94.0414ZM87.9214 26.045V26.765C87.9214 28.865 86.8414 31.22 84.5614 32.24L85.6264 33.77C88.1914 32.66 89.4964 29.705 89.4964 26.765V26.045H87.9214ZM88.3564 26.045V26.765C88.3564 29.615 89.6764 32.48 92.2414 33.545L93.3064 32.015C91.0114 31.04 89.9164 28.76 89.9164 26.765V26.045H88.3564ZM85.0264 24.71V26.285H92.7514V24.71H85.0264ZM87.9214 22.76V25.52H89.9164V22.76H87.9214ZM97.8952 37.73H99.3652L103.1 22.91H101.645L97.8952 37.73ZM109.366 29.15V31.085H111.361V29.15H109.366ZM105.706 22.655V27.305H115.066V22.655H113.086V23.57H107.671V22.655H105.706ZM107.671 25.025H113.086V25.835H107.671V25.025ZM104.101 28.025V29.6H116.656V28.025H104.101ZM105.541 30.47V31.925H113.176V32.63H105.556V35.255H107.521V33.995H115.141V30.47H105.541ZM105.556 34.76V36.245H115.501V34.76H105.556ZM121.815 22.85C119.7 22.85 118.11 24.17 118.11 26.03C118.11 27.875 119.7 29.195 121.815 29.195C123.93 29.195 125.52 27.875 125.52 26.03C125.52 24.17 123.93 22.85 121.815 22.85ZM121.815 24.47C122.835 24.47 123.585 25.04 123.585 26.03C123.585 27.02 122.835 27.59 121.815 27.59C120.795 27.59 120.03 27.02 120.03 26.03C120.03 25.04 120.795 24.47 121.815 24.47ZM127.44 22.445V29.39H129.45V22.445H127.44ZM120.18 29.96V31.505H127.47V32.33H120.21V35.45H122.16V33.77H129.45V29.96H120.18ZM120.21 34.64V36.185H129.795V34.64H120.21ZM141.239 22.445V36.335H143.249V22.445H141.239ZM135.119 26.045V26.765C135.119 28.865 134.039 31.22 131.759 32.24L132.824 33.77C135.389 32.66 136.694 29.705 136.694 26.765V26.045H135.119ZM135.554 26.045V26.765C135.554 29.615 136.874 32.48 139.439 33.545L140.504 32.015C138.209 31.04 137.114 28.76 137.114 26.765V26.045H135.554ZM132.224 24.71V26.285H139.949V24.71H132.224ZM135.119 22.76V25.52H137.114V22.76H135.119Z" fill="black"/>
</svg>
