<svg width="214" height="58" viewBox="0 0 214 58" fill="none" xmlns="http://www.w3.org/2000/svg">
<rect x="1.5" y="5.5" width="211" height="48" rx="23.5" fill="#3AA664" fill-opacity="0.64" stroke="#018133" stroke-width="3"/>
<path d="M25.4159 26.0862L25.4322 27.6912L36.8916 27.5751L36.8753 25.9702L25.4159 26.0862ZM24.9823 35.1061L24.9985 36.711L37.5679 36.5837L37.5516 34.9788L24.9823 35.1061ZM31.1528 28.2182C28.273 28.2474 26.4539 29.3309 26.4716 31.0858C26.4896 32.8557 28.3301 33.8871 31.21 33.8579C34.0898 33.8288 35.9091 32.7603 35.8911 30.9904C35.8734 29.2355 34.0327 28.1891 31.1528 28.2182ZM31.1689 29.8082C32.8938 29.7907 33.8579 30.1859 33.8663 31.0109C33.8746 31.8358 32.9189 32.2656 31.194 32.283C29.4691 32.3005 28.5049 31.8902 28.4965 31.0653C28.4882 30.2403 29.444 29.8256 31.1689 29.8082ZM30.1393 24.4183L30.1656 27.0132L32.1455 26.9931L32.1192 24.3982L30.1393 24.4183ZM38.7267 31.1417L38.7426 32.7166L51.327 32.5891L51.311 31.0142L38.7267 31.1417ZM40.2032 24.3764L40.2185 25.8913L47.7632 25.8149L47.7712 26.6098L40.2416 26.6861L40.2712 29.6109L42.2511 29.5909L42.2358 28.076L49.7504 27.9998L49.7127 24.28L40.2032 24.3764ZM40.2638 28.876L40.2791 30.3909L50.0436 30.292L50.0283 28.7771L40.2638 28.876ZM40.341 33.5404L40.3848 37.8602L49.9243 37.7636L49.8805 33.4438L40.341 33.5404ZM47.9314 35.0236L47.9434 36.2086L42.3187 36.2655L42.3067 35.0806L47.9314 35.0236ZM53.0528 25.3713L53.0687 26.9462L59.0534 26.8856L59.0375 25.3106L53.0528 25.3713ZM54.8779 29.328L54.9256 34.0377L56.8905 34.0178L56.8428 29.3081L54.8779 29.328ZM58.2425 25.3187L58.2539 26.4436C58.2674 27.7786 58.2837 29.3835 57.9462 31.607L59.8979 31.7672C60.2495 29.4536 60.2325 27.7737 60.2188 26.4237L60.2074 25.2988L58.2425 25.3187ZM61.3784 23.9069L61.5191 37.7961L63.514 37.7759L63.3733 23.8866L61.3784 23.9069ZM62.8448 29.4723L62.8615 31.1222L65.3064 31.0974L65.2897 29.4475L62.8448 29.4723ZM52.6261 35.0811C55.041 35.0566 58.1602 34.965 60.9602 34.4566L60.8405 33.0028C58.1141 33.3754 54.8747 33.4532 52.4298 33.478L52.6261 35.0811ZM70.2753 24.8218L70.2916 26.4267L76.2313 26.3665L76.215 24.7616L70.2753 24.8218ZM72.0181 28.0443L72.0533 31.5241L74.0332 31.5041L73.998 28.0242L72.0181 28.0443ZM75.4351 24.7695L75.4439 25.6395C75.4536 26.5994 75.4658 27.7994 75.1831 29.5123L77.1201 29.7027C77.4327 27.9744 77.4187 26.5945 77.4088 25.6196L77.4 24.7496L75.4351 24.7695ZM78.7397 23.731L78.845 34.1255L80.8549 34.1051L80.7496 23.7106L78.7397 23.731ZM79.9975 27.9485L80.0141 29.5834L82.459 29.5586L82.4424 27.9237L79.9975 27.9485ZM71.6023 35.8639L71.6184 37.4538L81.3229 37.3555L81.3068 35.7656L71.6023 35.8639ZM71.576 33.269L71.6073 36.3589L73.6022 36.3387L73.5709 33.2488L71.576 33.269ZM69.7217 32.3578C72.1065 32.3336 75.3308 32.241 78.1901 31.672L78.0559 30.2632C75.27 30.6815 71.9256 30.7604 69.5257 30.7847L69.7217 32.3578ZM88.8401 27.2889L88.8562 28.8788L91.6761 28.8502L91.66 27.2603L88.8401 27.2889ZM88.8002 30.7544L88.8163 32.3444L91.6512 32.3156L91.6351 30.7257L88.8002 30.7544ZM93.5128 23.5813L93.6535 37.4706L95.5584 37.4513L95.4177 23.562L93.5128 23.5813ZM90.651 23.9103L90.7824 36.8847L92.6423 36.8658L92.5109 23.8915L90.651 23.9103ZM87.5297 25.277L87.5338 25.682C87.5678 29.0418 86.4663 31.3631 83.3507 33.2998L84.4898 34.6833C88.3365 32.3642 89.4895 29.2024 89.4496 25.2576L87.5297 25.277ZM84.0649 25.3121L84.081 26.902L88.2207 26.8601L88.2046 25.2702L84.0649 25.3121ZM102.257 31.6232L102.314 37.2329L107.384 37.1815L107.327 31.5718L105.482 31.5905L105.496 32.9554L104.116 32.9694L104.102 31.6045L102.257 31.6232ZM104.13 34.4093L105.51 34.3954L105.523 35.7003L104.144 35.7143L104.13 34.4093ZM109.471 31.4451L109.481 32.48C109.494 33.785 108.833 35.1267 107.175 35.8336L108.165 37.3086C110.212 36.4929 111.017 34.5046 110.996 32.4647L110.985 31.4298L109.471 31.4451ZM109.936 31.4404L109.946 32.4753C109.968 34.6652 110.767 36.5322 112.875 37.2609L113.85 35.766C112.149 35.2132 111.476 33.8999 111.461 32.46L111.45 31.425L109.936 31.4404ZM107.694 26.4078L107.711 28.0277L111.191 27.9925L111.174 26.3726L107.694 26.4078ZM104.49 23.9952C102.39 24.0164 100.829 25.3823 100.848 27.3022C100.868 29.2221 102.456 30.5711 104.556 30.5498C106.641 30.5287 108.202 29.1478 108.183 27.2279C108.163 25.308 106.575 23.974 104.49 23.9952ZM104.506 25.6301C105.526 25.6198 106.268 26.2273 106.278 27.2472C106.288 28.2672 105.56 28.9046 104.54 28.9149C103.52 28.9252 102.763 28.3029 102.753 27.2829C102.743 26.263 103.486 25.6404 104.506 25.6301ZM110.274 23.4115L110.349 30.7612L112.344 30.741L112.269 23.3913L110.274 23.4115ZM116.041 27.1033L116.057 28.6782L125.686 28.5807L125.67 27.0058L116.041 27.1033ZM114.511 30.134L114.527 31.7239L127.112 31.5964L127.096 30.0065L114.511 30.134ZM116.008 23.8485L116.049 27.8833L118.029 27.8632L117.988 23.8284L116.008 23.8485ZM115.989 35.3543L116.005 36.9442L125.845 36.8445L125.829 35.2546L115.989 35.3543ZM115.964 32.8194L115.994 35.7742L117.988 35.754L117.959 32.7992L115.964 32.8194ZM131.709 30.0498L131.725 31.6397L144.294 31.5124L144.278 29.9224L131.709 30.0498ZM137.164 30.9996L137.193 33.9244L139.203 33.9041L139.173 30.9792L137.164 30.9996ZM133.19 23.7644L133.242 28.9242L142.677 28.8286L142.625 23.6689L133.19 23.7644ZM140.675 25.2487L140.696 27.2886L135.176 27.3445L135.156 25.3046L140.675 25.2487ZM133.216 35.2398L133.232 36.8297L142.967 36.7311L142.951 35.1412L133.216 35.2398ZM133.192 32.7949L133.222 35.7647L135.202 35.7447L135.171 32.7748L133.192 32.7949ZM148.543 24.569L148.552 25.4389C148.57 27.2088 147.613 29.0336 145.311 29.822L146.317 31.3869C148.993 30.4747 150.213 28.0772 150.187 25.4224L150.178 24.5524L148.543 24.569ZM148.948 24.5649L148.957 25.4348C148.982 27.9097 150.204 30.0724 152.852 30.8407L153.781 29.2712C151.539 28.6188 150.593 27.0383 150.577 25.4184L150.568 24.5485L148.948 24.5649ZM145.777 23.982L145.793 25.5719L153.292 25.4959L153.276 23.906L145.777 23.982ZM154.377 22.9648L154.46 31.1994L156.455 31.1792L156.372 22.9446L154.377 22.9648ZM155.849 26.145L155.866 27.78L158.266 27.7557L158.249 26.1207L155.849 26.145ZM151.928 31.48C149.033 31.5094 147.228 32.5327 147.246 34.2276C147.263 35.9225 149.088 36.9091 151.983 36.8798C154.863 36.8506 156.667 35.8273 156.65 34.1323C156.633 32.4374 154.808 31.4509 151.928 31.48ZM151.944 33.04C153.714 33.022 154.662 33.3724 154.67 34.1524C154.678 34.9324 153.737 35.3319 151.967 35.3498C150.197 35.3678 149.233 34.9875 149.225 34.2076C149.218 33.4276 150.174 33.0579 151.944 33.04ZM165.777 25.1594L165.782 25.6694C165.797 27.1693 164.837 28.6641 162.594 29.2869L163.524 30.8375C166.172 30.0907 167.411 28.008 167.387 25.6532L167.382 25.1432L165.777 25.1594ZM166.152 25.1556L166.157 25.6656C166.18 27.9005 167.445 29.8678 170.136 30.5156L171.006 28.9767C168.765 28.4293 167.791 27.0291 167.777 25.6492L167.772 25.1392L166.152 25.1556ZM163.037 24.2121L163.053 25.7721L170.508 25.6965L170.492 24.1366L163.037 24.2121ZM165.753 22.8046L165.774 24.9044L167.769 24.8842L167.748 22.7843L165.753 22.8046ZM171.573 22.7906L171.653 30.6952L173.648 30.675L173.568 22.7704L171.573 22.7906ZM173.045 25.8809L173.061 27.5158L175.461 27.4915L175.445 25.8565L173.045 25.8809ZM168.126 31.991L168.13 32.321C168.142 33.5209 166.865 34.8239 163.974 35.1982L164.709 36.7058C168.049 36.237 169.831 34.4638 169.81 32.304L169.806 31.974L168.126 31.991ZM168.561 31.9866L168.565 32.3166C168.586 34.4165 170.404 36.2431 173.769 36.6441L174.458 35.122C171.605 34.7759 170.271 33.4543 170.26 32.2994L170.256 31.9694L168.561 31.9866ZM164.52 31.3675L164.536 32.9424L173.85 32.8481L173.834 31.2731L164.52 31.3675ZM186.001 22.6444L186.142 36.5337L188.152 36.5134L188.011 22.6241L186.001 22.6444ZM181.921 24.1259L181.925 24.4858C181.962 28.2056 180.548 30.7401 176.578 32.7004L177.629 34.2799C182.539 31.845 183.944 28.3506 183.901 24.1058L181.921 24.1259ZM177.226 24.1734L177.242 25.7483L182.882 25.6912L182.866 24.1163L177.226 24.1734Z" fill="black"/>
</svg>
