<svg width="214" height="56" viewBox="0 0 214 56" fill="none" xmlns="http://www.w3.org/2000/svg">
<rect x="1.5" y="4.5" width="211" height="48" rx="23.5" stroke="#018133" stroke-width="3"/>
<path d="M78.8031 29.3V30.89H91.3731V29.3H78.8031ZM84.2481 30.305V33.23H86.2581V30.305H84.2481ZM80.3481 23.03V28.19H89.7831V23.03H80.3481ZM87.8181 24.59V26.63H82.2981V24.59H87.8181ZM80.2581 34.505V36.095H89.9931V34.505H80.2581ZM80.2581 32.06V35.03H82.2381V32.06H80.2581ZM95.692 23.99V24.86C95.692 26.63 94.717 28.445 92.407 29.21L93.397 30.785C96.082 29.9 97.327 27.515 97.327 24.86V23.99H95.692ZM96.097 23.99V24.86C96.097 27.335 97.297 29.51 99.937 30.305L100.882 28.745C98.647 28.07 97.717 26.48 97.717 24.86V23.99H96.097ZM92.932 23.375V24.965H100.432V23.375H92.932ZM101.542 22.445V30.68H103.537V22.445H101.542ZM102.982 25.64V27.275H105.382V25.64H102.982ZM99.007 30.935C96.112 30.935 94.297 31.94 94.297 33.635C94.297 35.33 96.112 36.335 99.007 36.335C101.887 36.335 103.702 35.33 103.702 33.635C103.702 31.94 101.887 30.935 99.007 30.935ZM99.007 32.495C100.777 32.495 101.722 32.855 101.722 33.635C101.722 34.415 100.777 34.805 99.007 34.805C97.237 34.805 96.277 34.415 96.277 33.635C96.277 32.855 97.237 32.495 99.007 32.495ZM112.919 23.06V24.125C112.919 25.97 111.959 27.785 109.634 28.535L110.669 30.095C113.324 29.195 114.554 26.84 114.554 24.125V23.06H112.919ZM113.324 23.06V24.095C113.324 26.675 114.494 28.91 116.999 29.765L118.049 28.235C115.874 27.515 114.929 25.82 114.929 24.095V23.06H113.324ZM118.739 22.445V30.11H120.734V22.445H118.739ZM120.179 25.415V27.05H122.579V25.415H120.179ZM111.659 30.695V36.185H120.734V30.695H118.754V31.91H113.639V30.695H111.659ZM113.639 33.425H118.754V34.595H113.639V33.425ZM133.138 22.445V29.915H135.148V22.445H133.138ZM125.908 30.515V36.185H135.148V30.515H133.168V31.805H127.873V30.515H125.908ZM127.873 33.335H133.168V34.595H127.873V33.335ZM127.588 23.015C125.428 23.015 123.808 24.38 123.808 26.3C123.808 28.22 125.428 29.585 127.588 29.585C129.748 29.585 131.353 28.22 131.353 26.3C131.353 24.38 129.748 23.015 127.588 23.015ZM127.588 24.665C128.638 24.665 129.403 25.28 129.403 26.3C129.403 27.335 128.638 27.935 127.588 27.935C126.523 27.935 125.758 27.335 125.758 26.3C125.758 25.28 126.523 24.665 127.588 24.665Z" fill="black"/>
</svg>
